<svg xmlns="http://www.w3.org/2000/svg" version="1.1" xmlns:xlink="http://www.w3.org/1999/xlink" width="24" height="24"><svg xmlns="http://www.w3.org/2000/svg" width="24" height="24" viewBox="0 0 24 24" fill="none" stroke="#155dfc" stroke-width="2" stroke-linecap="round" stroke-linejoin="round" class="lucide lucide-cat-icon lucide-cat"><g style="transform-box:fill-box;transform-origin:12px 12px;animation:bob 3s ease-in-out infinite"><path d="M12 5c.67 0 1.35.09 2 .26 1.78-2 5.03-2.84 6.42-2.26 1.4.58-.42 7-.42 7 .57 1.07 1 2.24 1 3.44C21 17.9 16.97 21 12 21s-9-3-9-7.56c0-1.25.5-2.4 1-3.44 0 0-1.89-6.42-.5-7s4.72.23 6.5 2.23A9 9 0 0 1 12 5"></path><path d="M8 14v.5m8-.5v.5" style="transform-box:fill-box;transform-origin:center;animation:blink 4s ease-in-out infinite"></path><path d="M11.25 16.25h1.5L12 17z"></path></g></svg><style>@media (prefers-color-scheme: light) { :root { filter: none; } }
@media (prefers-color-scheme: dark) { :root { filter: none; } }
</style></svg>